<svg xmlns="http://www.w3.org/2000/svg" width="128" height="128" viewBox="0 0 128 128">
<defs>
  <linearGradient id="g" x1="0" x2="1" y1="0" y2="1">
    <stop offset="0" stop-color="#5B8CFF"/>
    <stop offset="1" stop-color="#2AD1FF"/>
  </linearGradient>
</defs>
<rect x="8" y="8" width="112" height="112" rx="28" fill="#1c2433"/>
<circle cx="64" cy="64" r="36" fill="url(#g)" opacity="0.9"/>
<circle cx="64" cy="64" r="30" fill="#0b1020" opacity="0.35"/>
<path d="M58 44h18c6 0 10 4 10 10 0 5-3 9-8 10 6 1 10 5 10 11 0 7-5 11-12 11H58V44zm18 19c4 0 6-2 6-5s-2-5-6-5H62v10h14zm1 23c5 0 7-2 7-6s-2-6-7-6H62v12h15z" fill="#EAF2FF"/>
</svg>