<svg xmlns="http://www.w3.org/2000/svg" viewBox="0 0 64 64">
  <defs>
    <linearGradient id="g" x1="0" x2="1" y1="0" y2="1">
      <stop offset="0" stop-color="#3861FB"/>
      <stop offset="1" stop-color="#6188FF"/>
    </linearGradient>
  </defs>
  <rect x="6" y="6" width="52" height="52" rx="16" fill="url(#g)"/>
  <path d="M28 16h10c7 0 12 4 12 10 0 4-2 7-6 9 4 1 7 5 7 10 0 7-6 11-14 11H28V16zm10 16c3 0 5-2 5-5s-2-5-5-5h-3v10h3zm1 18c4 0 7-2 7-6s-3-6-7-6h-4v12h4z" fill="#fff" opacity="0.95"/>
</svg>
